<?xml version="1.0" encoding="UTF-8" standalone="no"?>
<svg width="100px" height="100px" viewBox="0 0 100 100" version="1.1" xmlns="http://www.w3.org/2000/svg" xmlns:xlink="http://www.w3.org/1999/xlink">
	<g stroke="none" stroke-width="1" fill="none" fill-rule="evenodd">
		<path d="M120,108 C120,114.6 114.6,120 108,120 L12,120 C5.4,120 0,114.6 0,108 L0,12 C0,5.4 5.4,0 12,0 L108,0 C114.6,0 120,5.4 120,12 L120,108 L120,108 Z" id="Shape" fill="#6EA2E7"/>
		<ellipse fill="#fff" cx="41.3" cy="42.3" rx="12.2" ry="13.5"></ellipse><path fill="#fff" d="m52.6 57.4c-3.1 2.8-7 4.5-11.3 4.5-4.3 0-8.3-1.7-11.3-4.6-5.5 2.5-11 5.7-11 10.7v2.1c0 2.5 2 4.5 4.5 4.5h35.7c2.5 0 4.5-2 4.5-4.5v-2.1c-0.1-5-5.5-8.1-11.1-10.6z m15.4-10c-0.2-0.1-0.3-0.2-0.5-0.3-0.4-0.2-0.9-0.2-1.3 0.1-2.1 1.3-4.6 2.1-7.2 2.1h-1c-0.5 1.3-1 2.6-1.7 3.7 0.4 0.2 0.9 0.3 1.4 0.6 5.7 2.5 9.7 5.6 12.5 9.8h4.8c2.2 0 4-1.8 4-4v-1.9c0-4.9-5.7-7.9-11-10.1z m-1.1-13.2c0-4.9-3.6-8.9-7.9-8.9-2.2 0-4.1 1-5.6 2.5 3.5 3.6 5.7 8.7 5.7 14.4v0.8c4.3 0 7.8-3.9 7.8-8.8z"></path>

		<!--path fill="#FFF" d="m36.7 52.4c-1.7-2.7-2.7-5.9-2.7-9.4 0-5.9 2.5-10.9 6.5-13.9-1.5-2.5-4-4.1-7.5-4.1-5.8 0-9 4.6-9 10 0 2.9 1 5.3 2.9 7.1 1.1 1 2 2.3 2 3.7 0 1.4-0.5 2.6-3.8 4-4.7 2.1-9 4.8-9.1 9.2 0 2.9 1.9 5 4.6 5h4.3c0.7 0 1.4-0.4 1.7-1 2.1-3.8 6-6.2 9.3-7.8 1.1-0.5 1.5-1.8 0.8-2.8z m38.2-2.6c-3.3-1.4-3.8-2.7-3.8-4 0-1.4 0.9-2.7 2-3.7 1.9-1.8 2.9-4.2 2.9-7.1 0-5.4-3.2-10-9-10-3.5 0-6 1.6-7.5 4.1 4 3 6.5 7.9 6.5 13.9 0 3.5-0.9 6.7-2.7 9.4-0.7 1-0.3 2.3 0.8 2.9 3.3 1.6 7.2 4 9.3 7.8 0.3 0.6 1 1 1.7 1h4.3c2.7 0 4.6-2.1 4.6-5-0.1-4.4-4.4-7.2-9.1-9.3z m-16.2 9.6c-3.6-1.5-4.1-2.9-4.1-4.4 0-1.5 1-3 2.2-4.1 2.1-1.9 3.3-4.7 3.3-7.9 0-5.9-3.6-11-10-11s-10 5.1-10 11c0 3.2 1.2 5.9 3.3 7.9 1.2 1.1 2.2 2.6 2.2 4.1 0 1.5-0.6 2.9-4.1 4.4-5.4 2.2-10.4 4.8-10.5 9.6 0 3.2 2.3 6 5.3 6h27.4c3 0 5.3-2.8 5.3-6-0.1-4.8-5.1-7.4-10.3-9.6z"></path-->
	</g>
</svg>
