<?xml version="1.0" encoding="UTF-8" standalone="no"?>
<svg width="100px" height="100px" viewBox="0 0 100 100" version="1.1" xmlns="http://www.w3.org/2000/svg" xmlns:xlink="http://www.w3.org/1999/xlink">
	<g stroke="none" stroke-width="1" fill="none" fill-rule="evenodd">
		<path d="M120,108 C120,114.6 114.6,120 108,120 L12,120 C5.4,120 0,114.6 0,108 L0,12 C0,5.4 5.4,0 12,0 L108,0 C114.6,0 120,5.4 120,12 L120,108 L120,108 Z" id="Shape" fill="#2A739E"/>
		<path d="m72.7 20.6h-45.4c-1.7 0-3.1 1.4-3.1 3.1v15.4h51.5v-15.4c0-1.7-1.3-3.1-3-3.1z m-27.2 21.7v37.1h27.2c1.7 0 3.1-1.4 3.1-3.1v-34h-30.3z m-21.2 0v34c0 0.9 0.3 1.6 0.9 2.2 0.5 0.6 1.3 0.9 2.1 0.9h15.2v-37.1h-18.2z" fill="#FFF"></path>
		<!--path d="M77.7383308,20 L61.1640113,20 L44.7300055,63.2000173 L56.0543288,63.2000173 L40,99.623291 L72.7458388,54.5871812 L60.907727,54.5871812 L77.7383308,20 Z" id="Path-1" fill="#FFFFFF"/-->
	</g>
</svg>
