<?xml version="1.0" encoding="UTF-8" standalone="no"?>
<svg width="100px" height="100px" viewBox="0 0 100 100" version="1.1" xmlns="http://www.w3.org/2000/svg" xmlns:xlink="http://www.w3.org/1999/xlink">
	<g stroke="none" stroke-width="1" fill="none" fill-rule="evenodd">
		<path d="M120,108 C120,114.6 114.6,120 108,120 L12,120 C5.4,120 0,114.6 0,108 L0,12 C0,5.4 5.4,0 12,0 L108,0 C114.6,0 120,5.4 120,12 L120,108 L120,108 Z" id="Shape" fill="#44C2B3"/>
		<path fill="#FFF" d="m63 36h10.6c0.8 0 1.4-0.6 1.4-1.4 0-0.4-0.1-0.7-0.4-1l-13.2-13.2c-0.3-0.3-0.6-0.4-1-0.4-0.8 0-1.4 0.6-1.4 1.4v10.6c0 2.2 1.8 4 4 4z m10 6h-14c-3.3 0-6-2.7-6-6v-14c0-1.1-0.9-2-2-2h-20c-3.3 0-6 2.7-6 6v48c0 3.3 2.7 6 6 6h38c3.3 0 6-2.7 6-6v-30c0-1.1-0.9-2-2-2z m-38.4 26.1c-1.7 0-3.1-1.4-3.1-3.1 0-1.7 1.4-3.1 3.1-3.1 1.7 0 3.1 1.4 3.1 3.1 0 1.7-1.4 3.1-3.1 3.1z m0-12c-1.7 0-3.1-1.4-3.1-3.1 0-1.7 1.4-3.1 3.1-3.1 1.7 0 3.1 1.4 3.1 3.1 0 1.8-1.4 3.1-3.1 3.1z m4.9-15.9l-4.4 2.3c-0.3 0.2-0.7-0.1-0.6-0.4l0.8-4.9c0-0.1 0-0.3-0.1-0.4l-3.6-3.5c-0.1-0.2 0.1-0.6 0.4-0.7l4.9-0.7c0.1 0 0.3-0.1 0.3-0.2l2.2-4.5c0.2-0.3 0.6-0.3 0.8 0l2.2 4.5c0.1 0.1 0.2 0.2 0.3 0.2l4.9 0.7c0.3 0.1 0.5 0.5 0.2 0.7l-3.6 3.5c-0.1 0.1-0.1 0.2-0.1 0.4l0.8 4.9c0.1 0.3-0.3 0.6-0.6 0.4l-4.4-2.3c-0.1-0.1-0.3-0.1-0.4 0z m27.5 25.8c0 1.1-0.9 2-2 2h-20.3c-1.1 0-2-0.9-2-2v-2c0-1.1 0.9-2 2-2h20.3c1.1 0 2 0.9 2 2v2z m0-12c0 1.1-0.9 2-2 2h-20.3c-1.1 0-2-0.9-2-2v-2c0-1.1 0.9-2 2-2h20.3c1.1 0 2 0.9 2 2v2z"></path>
	</g>
</svg>
