<?xml version="1.0" encoding="UTF-8" standalone="no"?>
<svg width="100px" height="100px" viewBox="0 0 100 100" version="1.1" xmlns="http://www.w3.org/2000/svg" xmlns:xlink="http://www.w3.org/1999/xlink">
	<g stroke="none" stroke-width="1" fill="none" fill-rule="evenodd">
		<path d="M120,108 C120,114.6 114.6,120 108,120 L12,120 C5.4,120 0,114.6 0,108 L0,12 C0,5.4 5.4,0 12,0 L108,0 C114.6,0 120,5.4 120,12 L120,108 L120,108 Z" id="Shape" fill="#117ABA"/>
		<path fill="#fff" d="m31.9 49.7c-0.6 0.1-1.2 0.1-1.9 0.1-0.6 0-1.2 0-1.9-0.1-0.6-0.1-1.1 0.4-1.1 1v27.3c0 1.1 0.9 2 2 2h2c1.1 0 2-0.9 2-2v-27.3c0-0.7-0.5-1.1-1.1-1z m20 21c-0.6 0.1-1.2 0.1-1.9 0.1-0.6 0-1.2 0-1.9-0.1-0.6-0.1-1.1 0.4-1.1 1v6.3c0 1.1 0.9 2 2 2h2c1.1 0 2-0.9 2-2v-6.3c0-0.7-0.5-1.1-1.1-1z m20-15c-0.6 0.1-1.2 0.1-1.9 0.1-0.6 0-1.2 0-1.9-0.1-0.6-0.1-1.1 0.4-1.1 1v21.3c0 1.1 0.9 2 2 2h2c1.1 0 2-0.9 2-2v-21.3c0-0.7-0.5-1.1-1.1-1z m-38.9-25v-8.7c0-1.1-0.9-2-2-2h-2c-1.1 0-2 0.9-2 2v8.7c-2.4 1.1-4 3.5-4 6.3 0 3.9 3.1 7 7 7s7-3.1 7-7c0-2.8-1.6-5.2-4-6.3z m20 21v-29.7c0-1.1-0.9-2-2-2h-2c-1.1 0-2 0.9-2 2v29.7c-2.4 1.1-4 3.5-4 6.3 0 3.9 3.1 7 7 7s7-3.1 7-7c0-2.8-1.6-5.2-4-6.3z m20-15v-14.7c0-1.1-0.9-2-2-2h-2c-1.1 0-2 0.9-2 2v14.7c-2.4 1.1-4 3.5-4 6.3 0 3.9 3.1 7 7 7s7-3.1 7-7c0-2.8-1.6-5.2-4-6.3z"></path>
	</g>
</svg>